<mxfile host="app.diagrams.net" agent="Mozilla/5.0 (Macintosh; Intel Mac OS X 10_15_7) AppleWebKit/537.36 (KHTML, like Gecko) Chrome/141.0.0.0 Safari/537.36" version="28.2.5">
  <diagram name="Page-1" id="soRfvUQntSsAmqTl8RfL">
    <mxGraphModel dx="3731" dy="2311" grid="1" gridSize="10" guides="1" tooltips="1" connect="1" arrows="1" fold="1" page="1" pageScale="1" pageWidth="850" pageHeight="1100" math="0" shadow="0">
      <root>
        <mxCell id="0" />
        <mxCell id="1" parent="0" />
        <mxCell id="2" value="เริ่มต้น" style="strokeWidth=2;html=1;shape=mxgraph.flowchart.start_1;whiteSpace=wrap;" vertex="1" parent="1">
          <mxGeometry x="298" y="30" width="100" height="50" as="geometry" />
        </mxCell>
        <mxCell id="3" value="กำหนดค่าเริ่มต้น:&lt;br&gt;a = {15, 7, ...}, n = 7&lt;br&gt;i = 0, j = 0, temp = 0" style="whiteSpace=wrap;html=1;" vertex="1" parent="1">
          <mxGeometry x="253" y="110" width="190" height="60" as="geometry" />
        </mxCell>
        <mxCell id="3-2" style="edgeStyle=orthogonalEdgeStyle;rounded=0;orthogonalLoop=1;jettySize=auto;html=1;exitX=0.5;exitY=1;exitDx=0;exitDy=0;entryX=0.5;entryY=0;entryDx=0;entryDy=0;" edge="1" parent="1" source="2" target="3">
          <mxGeometry relative="1" as="geometry" />
        </mxCell>
        <mxCell id="4" value="แสดงผล: &quot;Old Series : &quot;" style="shape=parallelogram;perimeter=parallelogramPerimeter;whiteSpace=wrap;html=1;fixedSize=1;" vertex="1" parent="1">
          <mxGeometry x="253" y="200" width="190" height="40" as="geometry" />
        </mxCell>
        <mxCell id="4-2" style="edgeStyle=orthogonalEdgeStyle;rounded=0;orthogonalLoop=1;jettySize=auto;html=1;exitX=0.5;exitY=1;exitDx=0;exitDy=0;entryX=0.5;entryY=0;entryDx=0;entryDy=0;" edge="1" parent="1" source="3" target="4">
          <mxGeometry relative="1" as="geometry" />
        </mxCell>
        <mxCell id="5" value="i = 0" style="whiteSpace=wrap;html=1;" vertex="1" parent="1">
          <mxGeometry x="298" y="270" width="100" height="40" as="geometry" />
        </mxCell>
        <mxCell id="5-2" style="edgeStyle=orthogonalEdgeStyle;rounded=0;orthogonalLoop=1;jettySize=auto;html=1;exitX=0.5;exitY=1;exitDx=0;exitDy=0;entryX=0.5;entryY=0;entryDx=0;entryDy=0;" edge="1" parent="1" source="4" target="5">
          <mxGeometry relative="1" as="geometry" />
        </mxCell>
        <mxCell id="6" value="i &lt; n หรือไม่?" style="rhombus;whiteSpace=wrap;html=1;" vertex="1" parent="1">
          <mxGeometry x="283" y="395.02" width="130" height="60" as="geometry" />
        </mxCell>
        <mxCell id="7" value="แสดงผล a[i] และตามด้วย &quot;, &quot; &lt;br&gt;ถ้า i &lt; n-1" style="shape=parallelogram;perimeter=parallelogramPerimeter;whiteSpace=wrap;html=1;fixedSize=1;" vertex="1" parent="1">
          <mxGeometry x="243" y="495.02" width="210" height="50" as="geometry" />
        </mxCell>
        <mxCell id="7-2" value="T" style="edgeStyle=orthogonalEdgeStyle;rounded=0;orthogonalLoop=1;jettySize=auto;html=1;exitX=0.5;exitY=1;exitDx=0;exitDy=0;entryX=0.5;entryY=0;entryDx=0;entryDy=0;" edge="1" parent="1" source="6" target="7">
          <mxGeometry relative="1" as="geometry">
            <Array as="points">
              <mxPoint x="348" y="475.02" />
            </Array>
          </mxGeometry>
        </mxCell>
        <mxCell id="ROkrkbR2oBbaRKTGtsLY-36" style="edgeStyle=orthogonalEdgeStyle;rounded=0;orthogonalLoop=1;jettySize=auto;html=1;exitX=0.5;exitY=0;exitDx=0;exitDy=0;entryX=0;entryY=0.5;entryDx=0;entryDy=0;" edge="1" parent="1" source="9" target="ROkrkbR2oBbaRKTGtsLY-35">
          <mxGeometry relative="1" as="geometry" />
        </mxCell>
        <mxCell id="9" value="i = i + 1" style="whiteSpace=wrap;html=1;" vertex="1" parent="1">
          <mxGeometry x="103" y="415.02" width="100" height="40" as="geometry" />
        </mxCell>
        <mxCell id="9-2" style="edgeStyle=orthogonalEdgeStyle;rounded=0;orthogonalLoop=1;jettySize=auto;html=1;exitX=0.5;exitY=1;exitDx=0;exitDy=0;entryX=0.5;entryY=1;entryDx=0;entryDy=0;" edge="1" parent="1" source="7" target="9">
          <mxGeometry relative="1" as="geometry">
            <Array as="points">
              <mxPoint x="348" y="565" />
              <mxPoint x="153" y="565" />
            </Array>
          </mxGeometry>
        </mxCell>
        <mxCell id="10" value="แสดงบรรทัดใหม่ (&quot;\n&quot;)" style="shape=parallelogram;perimeter=parallelogramPerimeter;whiteSpace=wrap;html=1;fixedSize=1;" vertex="1" parent="1">
          <mxGeometry x="523" y="465.02" width="130" height="40" as="geometry" />
        </mxCell>
        <mxCell id="10-2" value="F" style="edgeStyle=orthogonalEdgeStyle;rounded=0;orthogonalLoop=1;jettySize=auto;html=1;exitX=1;exitY=0.5;exitDx=0;exitDy=0;entryX=0.5;entryY=0;entryDx=0;entryDy=0;" edge="1" parent="1" source="6" target="10">
          <mxGeometry relative="1" as="geometry" />
        </mxCell>
        <mxCell id="ROkrkbR2oBbaRKTGtsLY-117" style="edgeStyle=orthogonalEdgeStyle;rounded=0;orthogonalLoop=1;jettySize=auto;html=1;exitX=0.5;exitY=1;exitDx=0;exitDy=0;entryX=0.5;entryY=0;entryDx=0;entryDy=0;" edge="1" parent="1" source="11" target="ROkrkbR2oBbaRKTGtsLY-105">
          <mxGeometry relative="1" as="geometry" />
        </mxCell>
        <mxCell id="11" value="i = 0" style="whiteSpace=wrap;html=1;" vertex="1" parent="1">
          <mxGeometry x="523" y="535.02" width="130" height="40" as="geometry" />
        </mxCell>
        <mxCell id="11-2" style="edgeStyle=orthogonalEdgeStyle;rounded=0;orthogonalLoop=1;jettySize=auto;html=1;exitX=0.5;exitY=1;exitDx=0;exitDy=0;entryX=0.5;entryY=0;entryDx=0;entryDy=0;" edge="1" parent="1" source="10" target="11">
          <mxGeometry relative="1" as="geometry" />
        </mxCell>
        <mxCell id="ROkrkbR2oBbaRKTGtsLY-38" style="edgeStyle=orthogonalEdgeStyle;rounded=0;orthogonalLoop=1;jettySize=auto;html=1;exitX=0;exitY=0.5;exitDx=0;exitDy=0;entryX=1;entryY=0.5;entryDx=0;entryDy=0;" edge="1" parent="1" source="12" target="20">
          <mxGeometry relative="1" as="geometry" />
        </mxCell>
        <mxCell id="ROkrkbR2oBbaRKTGtsLY-39" value="F" style="edgeLabel;html=1;align=center;verticalAlign=middle;resizable=0;points=[];" vertex="1" connectable="0" parent="ROkrkbR2oBbaRKTGtsLY-38">
          <mxGeometry x="-0.4366" y="-1" relative="1" as="geometry">
            <mxPoint as="offset" />
          </mxGeometry>
        </mxCell>
        <mxCell id="12" value="i &lt; n หรือไม่?" style="rhombus;whiteSpace=wrap;html=1;" vertex="1" parent="1">
          <mxGeometry x="518" y="650" width="140" height="60" as="geometry" />
        </mxCell>
        <mxCell id="13" value="j = i + 1" style="whiteSpace=wrap;html=1;" vertex="1" parent="1">
          <mxGeometry x="523" y="750" width="130" height="40" as="geometry" />
        </mxCell>
        <mxCell id="13-2" value="T" style="edgeStyle=orthogonalEdgeStyle;rounded=0;orthogonalLoop=1;jettySize=auto;html=1;exitX=0.5;exitY=1;exitDx=0;exitDy=0;entryX=0.5;entryY=0;entryDx=0;entryDy=0;" edge="1" parent="1" source="12" target="13">
          <mxGeometry relative="1" as="geometry" />
        </mxCell>
        <mxCell id="ROkrkbR2oBbaRKTGtsLY-108" style="edgeStyle=orthogonalEdgeStyle;rounded=0;orthogonalLoop=1;jettySize=auto;html=1;exitX=0.5;exitY=1;exitDx=0;exitDy=0;entryX=0.5;entryY=0;entryDx=0;entryDy=0;" edge="1" parent="1" source="14" target="ROkrkbR2oBbaRKTGtsLY-106">
          <mxGeometry relative="1" as="geometry" />
        </mxCell>
        <mxCell id="ROkrkbR2oBbaRKTGtsLY-109" value="T" style="edgeLabel;html=1;align=center;verticalAlign=middle;resizable=0;points=[];" vertex="1" connectable="0" parent="ROkrkbR2oBbaRKTGtsLY-108">
          <mxGeometry x="-0.5048" y="-2" relative="1" as="geometry">
            <mxPoint as="offset" />
          </mxGeometry>
        </mxCell>
        <mxCell id="14" value="j &lt; n หรือไม่?" style="rhombus;whiteSpace=wrap;html=1;" vertex="1" parent="1">
          <mxGeometry x="518" y="820" width="140" height="60" as="geometry" />
        </mxCell>
        <mxCell id="14-2" style="edgeStyle=orthogonalEdgeStyle;rounded=0;orthogonalLoop=1;jettySize=auto;html=1;exitX=0.5;exitY=1;exitDx=0;exitDy=0;entryX=0.5;entryY=0;entryDx=0;entryDy=0;" edge="1" parent="1" source="13" target="14">
          <mxGeometry relative="1" as="geometry" />
        </mxCell>
        <mxCell id="ROkrkbR2oBbaRKTGtsLY-111" style="edgeStyle=orthogonalEdgeStyle;rounded=0;orthogonalLoop=1;jettySize=auto;html=1;exitX=1;exitY=0.5;exitDx=0;exitDy=0;entryX=0.5;entryY=1;entryDx=0;entryDy=0;" edge="1" parent="1" source="15" target="ROkrkbR2oBbaRKTGtsLY-159">
          <mxGeometry relative="1" as="geometry" />
        </mxCell>
        <mxCell id="ROkrkbR2oBbaRKTGtsLY-114" value="F" style="edgeLabel;html=1;align=center;verticalAlign=middle;resizable=0;points=[];" vertex="1" connectable="0" parent="ROkrkbR2oBbaRKTGtsLY-111">
          <mxGeometry x="-0.0626" y="1" relative="1" as="geometry">
            <mxPoint as="offset" />
          </mxGeometry>
        </mxCell>
        <mxCell id="15" value="a[i] &gt; a[j] หรือไม่?" style="rhombus;whiteSpace=wrap;html=1;" vertex="1" parent="1">
          <mxGeometry x="518" y="1020" width="140" height="60" as="geometry" />
        </mxCell>
        <mxCell id="ROkrkbR2oBbaRKTGtsLY-112" style="edgeStyle=orthogonalEdgeStyle;rounded=0;orthogonalLoop=1;jettySize=auto;html=1;exitX=0;exitY=0.5;exitDx=0;exitDy=0;entryX=0.5;entryY=1;entryDx=0;entryDy=0;" edge="1" parent="1" source="16" target="ROkrkbR2oBbaRKTGtsLY-110">
          <mxGeometry relative="1" as="geometry" />
        </mxCell>
        <mxCell id="16" value="สลับค่า: temp = a[i], &lt;br&gt;a[i] = a[j], a[j] = temp" style="whiteSpace=wrap;html=1;" vertex="1" parent="1">
          <mxGeometry x="498" y="1125" width="180" height="50" as="geometry" />
        </mxCell>
        <mxCell id="16-2" value="T" style="edgeStyle=orthogonalEdgeStyle;rounded=0;orthogonalLoop=1;jettySize=auto;html=1;exitX=0.5;exitY=1;exitDx=0;exitDy=0;entryX=0.5;entryY=0;entryDx=0;entryDy=0;" edge="1" parent="1" source="15" target="16">
          <mxGeometry relative="1" as="geometry" />
        </mxCell>
        <mxCell id="ROkrkbR2oBbaRKTGtsLY-115" style="edgeStyle=orthogonalEdgeStyle;rounded=0;orthogonalLoop=1;jettySize=auto;html=1;exitX=0.5;exitY=0;exitDx=0;exitDy=0;entryX=0;entryY=0.5;entryDx=0;entryDy=0;" edge="1" parent="1" source="17" target="ROkrkbR2oBbaRKTGtsLY-106">
          <mxGeometry relative="1" as="geometry" />
        </mxCell>
        <mxCell id="17" value="j = j + 1" style="whiteSpace=wrap;html=1;" vertex="1" parent="1">
          <mxGeometry x="398" y="950" width="100" height="50" as="geometry" />
        </mxCell>
        <mxCell id="18" value="i = i + 1" style="whiteSpace=wrap;html=1;" vertex="1" parent="1">
          <mxGeometry x="733" y="720" width="100" height="50" as="geometry" />
        </mxCell>
        <mxCell id="18-2" value="F" style="edgeStyle=orthogonalEdgeStyle;rounded=0;orthogonalLoop=1;jettySize=auto;html=1;exitX=1;exitY=0.5;exitDx=0;exitDy=0;entryX=0;entryY=0.5;entryDx=0;entryDy=0;" edge="1" parent="1" source="14" target="ROkrkbR2oBbaRKTGtsLY-159">
          <mxGeometry relative="1" as="geometry">
            <mxPoint x="783" y="870" as="targetPoint" />
            <Array as="points">
              <mxPoint x="763" y="850" />
            </Array>
          </mxGeometry>
        </mxCell>
        <mxCell id="18-3" style="edgeStyle=orthogonalEdgeStyle;rounded=0;orthogonalLoop=1;jettySize=auto;html=1;exitX=0.5;exitY=0;exitDx=0;exitDy=0;entryX=1;entryY=0.5;entryDx=0;entryDy=0;" edge="1" parent="1" source="18" target="ROkrkbR2oBbaRKTGtsLY-105">
          <mxGeometry relative="1" as="geometry">
            <Array as="points">
              <mxPoint x="783" y="610" />
            </Array>
          </mxGeometry>
        </mxCell>
        <mxCell id="20" value="แสดงผล: &quot;New Series : &quot;" style="shape=parallelogram;perimeter=parallelogramPerimeter;whiteSpace=wrap;html=1;fixedSize=1;" vertex="1" parent="1">
          <mxGeometry x="178" y="660" width="130" height="40" as="geometry" />
        </mxCell>
        <mxCell id="ROkrkbR2oBbaRKTGtsLY-103" style="edgeStyle=orthogonalEdgeStyle;rounded=0;orthogonalLoop=1;jettySize=auto;html=1;exitX=0.5;exitY=1;exitDx=0;exitDy=0;entryX=0.5;entryY=0;entryDx=0;entryDy=0;" edge="1" parent="1" source="21" target="ROkrkbR2oBbaRKTGtsLY-102">
          <mxGeometry relative="1" as="geometry" />
        </mxCell>
        <mxCell id="21" value="i = 0" style="whiteSpace=wrap;html=1;" vertex="1" parent="1">
          <mxGeometry x="193" y="730" width="100" height="40" as="geometry" />
        </mxCell>
        <mxCell id="21-2" style="edgeStyle=orthogonalEdgeStyle;rounded=0;orthogonalLoop=1;jettySize=auto;html=1;exitX=0.5;exitY=1;exitDx=0;exitDy=0;entryX=0.5;entryY=0;entryDx=0;entryDy=0;" edge="1" parent="1" source="20" target="21">
          <mxGeometry relative="1" as="geometry" />
        </mxCell>
        <mxCell id="22" value="i &lt; n หรือไม่?" style="rhombus;whiteSpace=wrap;html=1;" vertex="1" parent="1">
          <mxGeometry x="178" y="880" width="130" height="60" as="geometry" />
        </mxCell>
        <mxCell id="23" value="แสดงผล a[i] และตามด้วย &quot;, &quot; &lt;br&gt;ถ้า i &lt; n-1" style="shape=parallelogram;perimeter=parallelogramPerimeter;whiteSpace=wrap;html=1;fixedSize=1;" vertex="1" parent="1">
          <mxGeometry x="138" y="980" width="210" height="50" as="geometry" />
        </mxCell>
        <mxCell id="23-2" value="T" style="edgeStyle=orthogonalEdgeStyle;rounded=0;orthogonalLoop=1;jettySize=auto;html=1;exitX=0.5;exitY=1;exitDx=0;exitDy=0;entryX=0.5;entryY=0;entryDx=0;entryDy=0;" edge="1" parent="1" source="22" target="23">
          <mxGeometry relative="1" as="geometry">
            <Array as="points">
              <mxPoint x="243" y="960" />
            </Array>
          </mxGeometry>
        </mxCell>
        <mxCell id="24" value="i = i + 1" style="whiteSpace=wrap;html=1;" vertex="1" parent="1">
          <mxGeometry x="18" y="930" width="100" height="40" as="geometry" />
        </mxCell>
        <mxCell id="24-2" style="edgeStyle=orthogonalEdgeStyle;rounded=0;orthogonalLoop=1;jettySize=auto;html=1;exitX=0.5;exitY=1;exitDx=0;exitDy=0;entryX=0.5;entryY=1;entryDx=0;entryDy=0;" edge="1" parent="1" source="23" target="24">
          <mxGeometry relative="1" as="geometry" />
        </mxCell>
        <mxCell id="24-3" style="edgeStyle=orthogonalEdgeStyle;rounded=0;orthogonalLoop=1;jettySize=auto;html=1;exitX=0.5;exitY=0;exitDx=0;exitDy=0;entryX=0;entryY=0.5;entryDx=0;entryDy=0;" edge="1" parent="1" source="24" target="ROkrkbR2oBbaRKTGtsLY-102">
          <mxGeometry relative="1" as="geometry">
            <Array as="points">
              <mxPoint x="68" y="820" />
            </Array>
          </mxGeometry>
        </mxCell>
        <mxCell id="26" value="แสดงบรรทัดใหม่ (&quot;\n&quot;)" style="shape=parallelogram;perimeter=parallelogramPerimeter;whiteSpace=wrap;html=1;fixedSize=1;" vertex="1" parent="1">
          <mxGeometry x="303" y="1175" width="130" height="40" as="geometry" />
        </mxCell>
        <mxCell id="26-2" value="F" style="edgeStyle=orthogonalEdgeStyle;rounded=0;orthogonalLoop=1;jettySize=auto;html=1;exitX=1;exitY=0.5;exitDx=0;exitDy=0;entryX=0.5;entryY=0;entryDx=0;entryDy=0;" edge="1" parent="1" source="22" target="26">
          <mxGeometry relative="1" as="geometry" />
        </mxCell>
        <mxCell id="ROkrkbR2oBbaRKTGtsLY-157" style="edgeStyle=orthogonalEdgeStyle;rounded=0;orthogonalLoop=1;jettySize=auto;html=1;exitX=0.5;exitY=1;exitDx=0;exitDy=0;entryX=0.5;entryY=0;entryDx=0;entryDy=0;" edge="1" parent="1" source="27" target="ROkrkbR2oBbaRKTGtsLY-156">
          <mxGeometry relative="1" as="geometry" />
        </mxCell>
        <mxCell id="27" value="i = 0" style="whiteSpace=wrap;html=1;" vertex="1" parent="1">
          <mxGeometry x="303" y="1245" width="130" height="40" as="geometry" />
        </mxCell>
        <mxCell id="27-2" style="edgeStyle=orthogonalEdgeStyle;rounded=0;orthogonalLoop=1;jettySize=auto;html=1;exitX=0.5;exitY=1;exitDx=0;exitDy=0;entryX=0.5;entryY=0;entryDx=0;entryDy=0;" edge="1" parent="1" source="26" target="27">
          <mxGeometry relative="1" as="geometry" />
        </mxCell>
        <mxCell id="28" value="i &lt; n หรือไม่?" style="rhombus;whiteSpace=wrap;html=1;" vertex="1" parent="1">
          <mxGeometry x="300" y="1367" width="140" height="60" as="geometry" />
        </mxCell>
        <mxCell id="28-2" style="edgeStyle=orthogonalEdgeStyle;rounded=0;orthogonalLoop=1;jettySize=auto;html=1;exitX=0.5;exitY=1;exitDx=0;exitDy=0;entryX=0.5;entryY=0;entryDx=0;entryDy=0;" edge="1" parent="1" source="ROkrkbR2oBbaRKTGtsLY-156" target="28">
          <mxGeometry relative="1" as="geometry">
            <mxPoint x="370" y="1336.9999999999998" as="sourcePoint" />
          </mxGeometry>
        </mxCell>
        <mxCell id="29" value="a[i] == 32 หรือไม่?" style="rhombus;whiteSpace=wrap;html=1;" vertex="1" parent="1">
          <mxGeometry x="299.5" y="1492" width="140" height="60" as="geometry" />
        </mxCell>
        <mxCell id="29-2" value="T" style="edgeStyle=orthogonalEdgeStyle;rounded=0;orthogonalLoop=1;jettySize=auto;html=1;exitX=0.5;exitY=1;exitDx=0;exitDy=0;entryX=0.5;entryY=0;entryDx=0;entryDy=0;" edge="1" parent="1" source="28" target="29">
          <mxGeometry relative="1" as="geometry" />
        </mxCell>
        <mxCell id="30" value="แสดงผล: &quot;Pos of 32 : &quot; + i" style="shape=parallelogram;perimeter=parallelogramPerimeter;whiteSpace=wrap;html=1;fixedSize=1;" vertex="1" parent="1">
          <mxGeometry x="139.5" y="1567" width="180" height="50" as="geometry" />
        </mxCell>
        <mxCell id="30-2" value="T" style="edgeStyle=orthogonalEdgeStyle;rounded=0;orthogonalLoop=1;jettySize=auto;html=1;exitX=0;exitY=0.5;exitDx=0;exitDy=0;entryX=0.5;entryY=0;entryDx=0;entryDy=0;" edge="1" parent="1" source="29" target="30">
          <mxGeometry x="-0.2593" relative="1" as="geometry">
            <Array as="points">
              <mxPoint x="229.5" y="1522" />
            </Array>
            <mxPoint as="offset" />
          </mxGeometry>
        </mxCell>
        <mxCell id="31" value="i = i + 1" style="whiteSpace=wrap;html=1;" vertex="1" parent="1">
          <mxGeometry x="494.5" y="1497" width="100" height="50" as="geometry" />
        </mxCell>
        <mxCell id="31-2" value="F" style="edgeStyle=orthogonalEdgeStyle;rounded=0;orthogonalLoop=1;jettySize=auto;html=1;exitX=1;exitY=0.5;exitDx=0;exitDy=0;entryX=0;entryY=0.5;entryDx=0;entryDy=0;" edge="1" parent="1" source="29" target="31">
          <mxGeometry relative="1" as="geometry" />
        </mxCell>
        <mxCell id="31-3" style="edgeStyle=orthogonalEdgeStyle;rounded=0;orthogonalLoop=1;jettySize=auto;html=1;exitX=0.5;exitY=1;exitDx=0;exitDy=0;entryX=0.5;entryY=1;entryDx=0;entryDy=0;" edge="1" parent="1" source="30" target="31">
          <mxGeometry relative="1" as="geometry">
            <Array as="points">
              <mxPoint x="229.5" y="1672" />
              <mxPoint x="544.5" y="1672" />
            </Array>
          </mxGeometry>
        </mxCell>
        <mxCell id="31-4" style="edgeStyle=orthogonalEdgeStyle;rounded=0;orthogonalLoop=1;jettySize=auto;html=1;exitX=0.5;exitY=0;exitDx=0;exitDy=0;entryX=1;entryY=0.5;entryDx=0;entryDy=0;" edge="1" parent="1" source="31" target="ROkrkbR2oBbaRKTGtsLY-156">
          <mxGeometry relative="1" as="geometry">
            <Array as="points">
              <mxPoint x="545" y="1330" />
            </Array>
          </mxGeometry>
        </mxCell>
        <mxCell id="35" value="สิ้นสุด" style="strokeWidth=2;html=1;shape=mxgraph.flowchart.start_1;whiteSpace=wrap;" vertex="1" parent="1">
          <mxGeometry x="320" y="1780" width="100" height="50" as="geometry" />
        </mxCell>
        <mxCell id="35-2" value="F" style="edgeStyle=orthogonalEdgeStyle;rounded=0;orthogonalLoop=1;jettySize=auto;html=1;exitX=0;exitY=0.5;exitDx=0;exitDy=0;entryX=0.5;entryY=0;entryDx=0;entryDy=0;" edge="1" parent="1" source="28" target="35">
          <mxGeometry relative="1" as="geometry">
            <Array as="points">
              <mxPoint x="115" y="1397" />
              <mxPoint x="115" y="1737" />
              <mxPoint x="370" y="1737" />
            </Array>
          </mxGeometry>
        </mxCell>
        <mxCell id="ROkrkbR2oBbaRKTGtsLY-37" style="edgeStyle=orthogonalEdgeStyle;rounded=0;orthogonalLoop=1;jettySize=auto;html=1;exitX=0.5;exitY=1;exitDx=0;exitDy=0;entryX=0.5;entryY=0;entryDx=0;entryDy=0;" edge="1" parent="1" source="ROkrkbR2oBbaRKTGtsLY-35" target="6">
          <mxGeometry relative="1" as="geometry" />
        </mxCell>
        <mxCell id="ROkrkbR2oBbaRKTGtsLY-35" value="" style="ellipse;whiteSpace=wrap;html=1;aspect=fixed;" vertex="1" parent="1">
          <mxGeometry x="328" y="330" width="40" height="40" as="geometry" />
        </mxCell>
        <mxCell id="ROkrkbR2oBbaRKTGtsLY-104" style="edgeStyle=orthogonalEdgeStyle;rounded=0;orthogonalLoop=1;jettySize=auto;html=1;exitX=0.5;exitY=1;exitDx=0;exitDy=0;entryX=0.5;entryY=0;entryDx=0;entryDy=0;" edge="1" parent="1" source="ROkrkbR2oBbaRKTGtsLY-102" target="22">
          <mxGeometry relative="1" as="geometry" />
        </mxCell>
        <mxCell id="ROkrkbR2oBbaRKTGtsLY-102" value="" style="ellipse;whiteSpace=wrap;html=1;aspect=fixed;" vertex="1" parent="1">
          <mxGeometry x="223" y="800" width="40" height="40" as="geometry" />
        </mxCell>
        <mxCell id="ROkrkbR2oBbaRKTGtsLY-144" style="edgeStyle=orthogonalEdgeStyle;rounded=0;orthogonalLoop=1;jettySize=auto;html=1;exitX=0.5;exitY=1;exitDx=0;exitDy=0;entryX=0.5;entryY=0;entryDx=0;entryDy=0;" edge="1" parent="1" source="ROkrkbR2oBbaRKTGtsLY-105" target="12">
          <mxGeometry relative="1" as="geometry" />
        </mxCell>
        <mxCell id="ROkrkbR2oBbaRKTGtsLY-105" value="" style="ellipse;whiteSpace=wrap;html=1;aspect=fixed;" vertex="1" parent="1">
          <mxGeometry x="569" y="590" width="40" height="40" as="geometry" />
        </mxCell>
        <mxCell id="ROkrkbR2oBbaRKTGtsLY-116" style="edgeStyle=orthogonalEdgeStyle;rounded=0;orthogonalLoop=1;jettySize=auto;html=1;exitX=0.5;exitY=1;exitDx=0;exitDy=0;entryX=0.5;entryY=0;entryDx=0;entryDy=0;" edge="1" parent="1" source="ROkrkbR2oBbaRKTGtsLY-106" target="15">
          <mxGeometry relative="1" as="geometry" />
        </mxCell>
        <mxCell id="ROkrkbR2oBbaRKTGtsLY-106" value="" style="ellipse;whiteSpace=wrap;html=1;aspect=fixed;" vertex="1" parent="1">
          <mxGeometry x="568" y="910" width="40" height="40" as="geometry" />
        </mxCell>
        <mxCell id="ROkrkbR2oBbaRKTGtsLY-113" style="edgeStyle=orthogonalEdgeStyle;rounded=0;orthogonalLoop=1;jettySize=auto;html=1;exitX=0.5;exitY=0;exitDx=0;exitDy=0;entryX=0.5;entryY=1;entryDx=0;entryDy=0;" edge="1" parent="1" source="ROkrkbR2oBbaRKTGtsLY-110" target="17">
          <mxGeometry relative="1" as="geometry" />
        </mxCell>
        <mxCell id="ROkrkbR2oBbaRKTGtsLY-110" value="" style="ellipse;whiteSpace=wrap;html=1;aspect=fixed;" vertex="1" parent="1">
          <mxGeometry x="428" y="1030" width="40" height="40" as="geometry" />
        </mxCell>
        <mxCell id="ROkrkbR2oBbaRKTGtsLY-156" value="" style="ellipse;whiteSpace=wrap;html=1;aspect=fixed;" vertex="1" parent="1">
          <mxGeometry x="349.5" y="1310" width="40" height="40" as="geometry" />
        </mxCell>
        <mxCell id="ROkrkbR2oBbaRKTGtsLY-160" style="edgeStyle=orthogonalEdgeStyle;rounded=0;orthogonalLoop=1;jettySize=auto;html=1;exitX=0.5;exitY=0;exitDx=0;exitDy=0;entryX=0.5;entryY=1;entryDx=0;entryDy=0;" edge="1" parent="1" source="ROkrkbR2oBbaRKTGtsLY-159" target="18">
          <mxGeometry relative="1" as="geometry" />
        </mxCell>
        <mxCell id="ROkrkbR2oBbaRKTGtsLY-159" value="" style="ellipse;whiteSpace=wrap;html=1;aspect=fixed;" vertex="1" parent="1">
          <mxGeometry x="763" y="830" width="40" height="40" as="geometry" />
        </mxCell>
      </root>
    </mxGraphModel>
  </diagram>
</mxfile>
